<svg width="390" height="389" xmlns="http://www.w3.org/2000/svg" xmlns:xlink="http://www.w3.org/1999/xlink" xml:space="preserve" overflow="hidden"><g transform="translate(-2005 -1043)"><rect x="2081.5" y="1141.5" width="238" height="151" stroke="#042433" stroke-width="6.875" stroke-miterlimit="8" fill="#83CBEB"/><path d="M307.958 243.125 81.0417 243.125 81.0417 105.354 307.958 105.354 307.958 243.125ZM332.271 97.25C332.271 88.3354 324.977 81.0417 316.063 81.0417L72.9375 81.0417C64.0229 81.0417 56.7292 88.3354 56.7292 97.25L56.7292 267.438 332.271 267.438 332.271 97.25Z" transform="matrix(1.00257 0 0 1 2005 1043)"/><path d="M218.813 283.646 218.813 287.698C218.813 290.129 217.192 291.75 214.76 291.75L174.24 291.75C171.808 291.75 170.188 290.129 170.188 287.698L170.188 283.646 8.10417 283.646 8.10417 291.75C8.10417 300.665 15.3979 307.958 24.3125 307.958L364.688 307.958C373.602 307.958 380.896 300.665 380.896 291.75L380.896 283.646 218.813 283.646Z" transform="matrix(1.00257 0 0 1 2005 1043)"/></g></svg>