<svg width="390" height="389" xmlns="http://www.w3.org/2000/svg" xmlns:xlink="http://www.w3.org/1999/xlink" xml:space="preserve" overflow="hidden"><g transform="translate(-2005 -1043)"><path d="M2062.1 1092 2307.76 1092C2307.47 1101.45 2325.28 1119.5 2325 1128.95L2307.76 1147 2062.1 1147C2062.1 1138.41 2044 1128.95 2044 1120.36 2049.17 1106.61 2056.07 1101.45 2062.1 1092Z" fill="#FFC000" fill-rule="evenodd"/><path d="M2121 1141 2316.58 1141C2316.29 1159.65 2310.86 1185.17 2302 1194.35 2301.14 1207.12 2312.86 1181.02 2314.86 1214.15 2318.87 1238.39 2320.44 1297.76 2320.01 1327.74 2382.2 1339.64 2346.46 1384.96 2312.29 1394L2121 1394 2121 1141Z" fill="#FFC000" fill-rule="evenodd"/><path d="M101.302 117.51 101.302 220.839C101.303 222.988 102.157 225.049 103.677 226.568L116.177 239.073 101.651 253.604C100.131 255.123 99.2765 257.184 99.2761 259.333L99.2761 314.037C99.3028 337.523 118.336 356.557 141.823 356.583L316.063 356.583C338.441 356.606 356.602 338.482 356.624 316.104 356.643 296.817 343.067 280.19 324.167 276.352L324.167 168.162C324.168 165.516 322.877 163.037 320.71 161.52L307.671 152.395 322.291 134.853C324.496 132.205 324.785 128.452 323.012 125.497L314.097 110.662 321.776 102.963C323.298 101.45 324.158 99.396 324.167 97.25L324.167 79.0157C324.14 55.529 305.107 36.4955 281.62 36.4688L74.9636 36.4688C51.5733 36.397 32.5395 55.2733 32.4167 78.6631 32.4048 91.4932 38.2732 103.622 48.3414 111.574 48.4872 111.692 48.6372 111.805 48.7952 111.91 53.917 115.525 60.0195 117.491 66.2881 117.547ZM91.4556 101.302C92.5877 98.573 93.1797 95.6503 93.198 92.6955 93.2932 79.4541 82.6362 68.6427 69.3948 68.5475 69.225 68.5463 69.0552 68.5467 68.8854 68.5491 64.4095 68.5491 60.7813 72.1774 60.7813 76.6533 60.7813 81.1292 64.4095 84.7575 68.8854 84.7575 73.2179 84.616 76.8445 88.0137 76.986 92.3462 76.9896 92.4625 76.9908 92.5792 76.9896 92.6955 76.7854 95.8351 74.87 98.6071 72.0056 99.9082 67.5462 102.093 62.2445 101.633 58.2285 98.7128 52.1572 93.8281 48.6262 86.4557 48.625 78.6631 48.7223 64.1165 60.5937 52.4036 75.1398 52.5008 89.6864 52.5981 101.399 64.4691 101.302 79.0157L101.302 101.302ZM153.979 275.582C148.878 275.347 143.805 276.456 139.266 278.796 131.059 282.883 125.799 291.19 125.615 300.357 125.519 313.598 136.176 324.41 149.418 324.505 149.588 324.506 149.757 324.506 149.927 324.503 154.403 324.503 158.031 320.875 158.031 316.399 158.031 311.923 154.403 308.295 149.927 308.295 145.595 308.436 141.968 305.039 141.827 300.706 141.823 300.59 141.822 300.473 141.823 300.357 142.027 297.217 143.943 294.445 146.807 293.144 151.27 290.965 156.572 291.433 160.584 294.36 166.65 299.24 170.18 306.604 170.188 314.389 170.074 328.831 158.291 340.456 143.849 340.375L141.823 340.375C127.284 340.357 115.502 328.575 115.484 314.037L115.484 262.693 133.37 244.803C136.534 241.638 136.534 236.508 133.37 233.343L117.51 217.479 117.51 79.0157C117.521 69.4544 114.295 60.171 108.357 52.6771L281.62 52.6771C296.159 52.6949 307.941 64.4768 307.958 79.0157L307.958 93.8909 298.177 103.677C295.549 106.307 295.047 110.388 296.961 113.576L306.155 128.901 289.574 148.793C286.709 152.231 287.174 157.341 290.613 160.206 290.787 160.352 290.968 160.49 291.154 160.621L307.958 172.384 307.958 275.542ZM316.063 340.375 177.299 340.375C188.458 326.367 189.437 306.801 179.73 291.75L316.063 291.75C329.49 291.75 340.375 302.635 340.375 316.063 340.375 329.49 329.49 340.375 316.063 340.375Z" transform="matrix(1.00257 0 0 1 2005 1043)"/><path d="M198.552 101.302 267.438 101.302 267.438 117.51 198.552 117.51Z" transform="matrix(1.00257 0 0 1 2005 1043)"/><path d="M158.031 101.302 182.344 101.302 182.344 117.51 158.031 117.51Z" transform="matrix(1.00257 0 0 1 2005 1043)"/><path d="M198.552 222.865 267.438 222.865 267.438 239.073 198.552 239.073Z" transform="matrix(1.00257 0 0 1 2005 1043)"/><path d="M158.031 222.865 182.344 222.865 182.344 239.073 158.031 239.073Z" transform="matrix(1.00257 0 0 1 2005 1043)"/><path d="M158.031 141.823 226.917 141.823 226.917 158.031 158.031 158.031Z" transform="matrix(1.00257 0 0 1 2005 1043)"/><path d="M243.125 141.823 267.438 141.823 267.438 158.031 243.125 158.031Z" transform="matrix(1.00257 0 0 1 2005 1043)"/><path d="M158.031 182.344 267.438 182.344 267.438 198.552 158.031 198.552Z" transform="matrix(1.00257 0 0 1 2005 1043)"/></g></svg>