<svg width="390" height="389" xmlns="http://www.w3.org/2000/svg" xmlns:xlink="http://www.w3.org/1999/xlink" xml:space="preserve" overflow="hidden"><g transform="translate(-2005 -1043)"><path d="M2200 1384 2092 1374.14 2092 1230.86 2200 1221Z" fill="#FFC000" fill-rule="evenodd"/><path d="M0 108 9.85718 0 153.143 0 163 108Z" fill="#FFC000" fill-rule="evenodd" transform="matrix(-6.12323e-17 -1 -1 6.12323e-17 2308 1384)"/><path d="M2192.31 1106.81C2226.41 1090.73 2262.41 1120.76 2272.73 1173.88 2275.8 1189.68 2276.33 1206.41 2274.26 1222.6" stroke="#7F7F7F" stroke-width="20.625" stroke-miterlimit="8" fill="none" fill-rule="evenodd"/><path d="M87.437 41.8346C94.7791 63.0974 97.8532 89.4917 96.0058 115.406" stroke="#7F7F7F" stroke-width="20.625" stroke-miterlimit="8" fill="none" fill-rule="evenodd" transform="matrix(-0.997599 0.06926 0.06926 0.997599 2218.9 1102.34)"/><path d="M2129.92 1149.58C2139.57 1121.99 2166.56 1104.33 2195.71 1106.53" stroke="#7F7F7F" stroke-width="20.625" stroke-miterlimit="8" fill="none" fill-rule="evenodd"/><path d="M279.695 178.353 279.695 129.792C279.695 82.7383 241.55 44.5932 194.496 44.5932 147.442 44.5932 109.297 82.7383 109.297 129.792L109.297 178.348 81.0295 180.375 81.0295 334.39 194.488 342.494 307.946 334.39 307.946 180.366ZM117.401 129.792C117.401 87.2138 151.918 52.6974 194.496 52.6974 237.075 52.6974 271.591 87.2138 271.591 129.792L271.591 177.81 259.333 176.991 259.333 129.691C259.333 93.8844 230.307 64.8577 194.5 64.8577 158.693 64.8577 129.667 93.8844 129.667 129.691L129.667 176.991 117.409 177.801ZM251.229 176.424 194.5 172.262 137.771 176.424 137.771 129.691C137.771 98.3603 163.169 72.9618 194.5 72.9618 225.831 72.9618 251.229 98.3603 251.229 129.691ZM299.854 326.845 194.5 334.374 89.1459 326.845 89.1459 187.915 109.949 186.428 134.314 184.807 194.5 180.387 254.742 184.807 279.018 186.428 299.854 187.915Z" transform="matrix(1.00257 0 0 1 2005 1043)"/><path d="M194.5 224.956C178.768 225.02 166.067 237.826 166.131 253.558 166.176 264.493 172.476 274.437 182.344 279.148L182.344 301.965 206.656 301.965 206.656 279.051C216.453 274.192 222.709 264.262 222.865 253.328 222.849 237.668 210.16 224.976 194.5 224.956ZM201.125 272.657 198.552 273.666 198.552 293.861 190.448 293.861 190.448 273.548 187.725 272.604C177.119 268.905 171.521 257.309 175.221 246.703 178.92 236.098 190.516 230.499 201.122 234.199 209.263 237.039 214.73 244.705 214.76 253.328 214.583 261.95 209.185 269.6 201.121 272.657Z" transform="matrix(1.00257 0 0 1 2005 1043)"/><path d="M2174 1297C2174 1282.64 2185.64 1271 2200 1271 2214.36 1271 2226 1282.64 2226 1297 2226 1311.36 2214.36 1323 2200 1323 2185.64 1323 2174 1311.36 2174 1297Z" fill-rule="evenodd"/><rect x="2194" y="1315" width="12.9998" height="26.0001"/></g></svg>