<svg width="114" height="114" xmlns="http://www.w3.org/2000/svg" xmlns:xlink="http://www.w3.org/1999/xlink" xml:space="preserve" overflow="hidden"><g transform="translate(-583 -303)"><path d="M670.085 338.164C668.141 321.554 653.1 309.664 636.49 311.608 621.271 313.389 609.781 326.258 609.728 341.581L623.978 341.581C623.978 332.73 631.152 325.555 640.003 325.555 648.853 325.554 656.029 332.729 656.029 341.579 656.029 347.098 653.19 352.228 648.514 355.159 638.865 361.063 632.95 371.533 632.875 382.845L647.125 382.845C647.216 376.436 650.61 370.528 656.1 367.221 665.985 361.052 671.43 349.739 670.085 338.164Z"/><path d="M646.388 393.813 646.388 393.813C642.992 390.41 637.481 390.404 634.078 393.8 634.073 393.804 634.069 393.809 634.065 393.813 633.269 394.612 632.635 395.558 632.198 396.599 631.744 397.674 631.512 398.829 631.518 399.996 631.511 401.158 631.744 402.31 632.201 403.378 633.089 405.467 634.757 407.127 636.851 408.004 637.925 408.458 639.08 408.69 640.247 408.688 641.409 408.693 642.56 408.461 643.629 408.005 645.708 407.117 647.364 405.461 648.251 403.382 648.707 402.313 648.94 401.162 648.935 400 648.939 398.833 648.707 397.677 648.253 396.602 647.817 395.561 647.184 394.614 646.388 393.813Z"/></g></svg>